<svg width="1440" height="512" viewBox="0 0 1440 512" fill="none" xmlns="http://www.w3.org/2000/svg">
<path d="M-123.687 546.098L7.70325 312.412L139.093 546.098H-123.687Z" stroke="url(#paint0_linear_13_1248)"/>
<path d="M-92.3986 543.328L38.0193 311.304L168.437 543.328H-92.3986Z" stroke="url(#paint1_linear_13_1248)"/>
<path d="M-62.0072 534.185L68.8968 301.331L199.801 534.185H-62.0072Z" stroke="url(#paint2_linear_13_1248)"/>
<path d="M-30.5668 518.948L100.336 286.922L231.238 518.948H-30.5668Z" stroke="url(#paint3_linear_13_1248)"/>
<path d="M0.79237 498.447L131.213 264.767L261.634 498.447H0.79237Z" stroke="url(#paint4_linear_13_1248)"/>
<path d="M29.0163 475.176L160.406 241.49L291.797 475.176H29.0163Z" stroke="url(#paint5_linear_13_1248)"/>
<path d="M57.3186 446.641L190.161 213.775L323.004 446.641H57.3186Z" stroke="url(#paint6_linear_13_1248)"/>
<path d="M88.6807 417.829L221.039 184.966L353.397 417.829H88.6807Z" stroke="url(#paint7_linear_13_1248)"/>
<path d="M119.888 385.415L250.793 151.732L381.699 385.415H119.888Z" stroke="url(#paint8_linear_13_1248)"/>
<path d="M150.205 354.664L281.109 121.809L412.013 354.664H150.205Z" stroke="url(#paint9_linear_13_1248)"/>
<path d="M181.644 324.744L312.548 91.8891L443.452 324.744H181.644Z" stroke="url(#paint10_linear_13_1248)"/>
<path d="M210.914 298.148L342.303 65.2905L473.692 298.148H210.914Z" stroke="url(#paint11_linear_13_1248)"/>
<path d="M242.352 274.6L373.742 40.9138L505.132 274.6H242.352Z" stroke="url(#paint12_linear_13_1248)"/>
<path d="M273.792 256.038L405.181 23.1805L536.569 256.038H273.792Z" stroke="url(#paint13_linear_13_1248)"/>
<path d="M304.108 242.74L435.497 9.88269L566.886 242.74H304.108Z" stroke="url(#paint14_linear_13_1248)"/>
<path d="M334.424 234.983L465.813 2.12561L597.202 234.983H334.424Z" stroke="url(#paint15_linear_13_1248)"/>
<path d="M365.785 234.706L496.69 1.02307L627.596 234.706H365.785Z" stroke="url(#paint16_linear_13_1248)"/>
<path d="M396.104 238.585L527.007 6.55833L657.909 238.585H396.104Z" stroke="url(#paint17_linear_13_1248)"/>
<path d="M424.403 249.389L556.761 16.526L689.119 249.389H424.403Z" stroke="url(#paint18_linear_13_1248)"/>
<path d="M454.724 264.626L587.077 34.2483L719.431 264.626H454.724Z" stroke="url(#paint19_linear_13_1248)"/>
<path d="M486.006 288.452L617.393 56.4226L748.781 288.452H486.006Z" stroke="url(#paint20_linear_13_1248)"/>
<path d="M516.321 312.554L647.709 79.6965L779.098 312.554H516.321Z" stroke="url(#paint21_linear_13_1248)"/>
<path d="M547.758 342.197L679.148 108.511L810.539 342.197H547.758Z" stroke="url(#paint22_linear_13_1248)"/>
<path d="M579.119 372.949L710.026 138.437L840.933 372.949H579.119Z" stroke="url(#paint23_linear_13_1248)"/>
<path d="M609.436 404.254L740.342 170.571L871.247 404.254H609.436Z" stroke="url(#paint24_linear_13_1248)"/>
<path d="M639.751 435.005L770.658 200.494L901.565 435.005H639.751Z" stroke="url(#paint25_linear_13_1248)"/>
<path d="M670.072 461.324L800.974 229.298L931.877 461.324H670.072Z" stroke="url(#paint26_linear_13_1248)"/>
<path d="M700.463 488.751L831.852 255.893L963.24 488.751H700.463Z" stroke="url(#paint27_linear_13_1248)"/>
<path d="M731.9 510.637L863.291 276.951L994.681 510.637H731.9Z" stroke="url(#paint28_linear_13_1248)"/>
<path d="M762.222 527.259L893.607 296.887L1024.99 527.259H762.222Z" stroke="url(#paint29_linear_13_1248)"/>
<path d="M791.562 540.28L923.923 305.76L1056.28 540.28H791.562Z" stroke="url(#paint30_linear_13_1248)"/>
<path d="M821.879 546.098L954.239 312.406L1086.6 546.098H821.879Z" stroke="url(#paint31_linear_13_1248)"/>
<path d="M853.089 545.267L983.993 312.412L1114.9 545.267H853.089Z" stroke="url(#paint32_linear_13_1248)"/>
<path d="M883.404 538.341L1014.31 304.658L1145.22 538.341H883.404Z" stroke="url(#paint33_linear_13_1248)"/>
<path d="M913.798 525.32L1045.19 292.463L1176.58 525.32H913.798Z" stroke="url(#paint34_linear_13_1248)"/>
<path d="M944.112 508.144L1075.5 273.629L1206.89 508.144H944.112Z" stroke="url(#paint35_linear_13_1248)"/>
<path d="M974.432 484.595L1105.82 252.566L1237.21 484.595H974.432Z" stroke="url(#paint36_linear_13_1248)"/>
<path d="M1005.87 458.831L1137.26 225.973L1268.65 458.831H1005.87Z" stroke="url(#paint37_linear_13_1248)"/>
<path d="M1037.31 429.742L1168.7 196.056L1300.09 429.742H1037.31Z" stroke="url(#paint38_linear_13_1248)"/>
<path d="M1067.55 398.713L1198.45 165.03L1329.36 398.713H1067.55Z" stroke="url(#paint39_linear_13_1248)"/>
<path d="M1098.99 368.793L1229.89 135.11L1360.8 368.793H1098.99Z" stroke="url(#paint40_linear_13_1248)"/>
<path d="M1129.31 336.379L1260.21 105.181L1391.11 336.379H1129.31Z" stroke="url(#paint41_linear_13_1248)"/>
<path d="M1157.6 310.061L1289.96 76.3692L1422.32 310.061H1157.6Z" stroke="url(#paint42_linear_13_1248)"/>
<path d="M1188 284.019L1320.84 51.9816L1453.68 284.019H1188Z" stroke="url(#paint43_linear_13_1248)"/>
<path d="M1219.2 262.687L1350.59 29.8295L1481.98 262.687H1219.2Z" stroke="url(#paint44_linear_13_1248)"/>
<path d="M1249.37 247.173L1379.79 14.321L1510.21 247.173H1249.37Z" stroke="url(#paint45_linear_13_1248)"/>
<path d="M1279.76 238.031L1410.66 4.34753L1541.57 238.031H1279.76Z" stroke="url(#paint46_linear_13_1248)"/>
<path d="M1311.2 234.706L1442.1 1.02307L1573.01 234.706H1311.2Z" stroke="url(#paint47_linear_13_1248)"/>
<path d="M1342.56 235.814L1472.98 2.1341L1603.4 235.814H1342.56Z" stroke="url(#paint48_linear_13_1248)"/>
<path d="M1371.91 244.125L1503.3 12.0963L1634.68 244.125H1371.91Z" stroke="url(#paint49_linear_13_1248)"/>
<defs>
<linearGradient id="paint0_linear_13_1248" x1="160.406" y1="468.196" x2="-145" y2="468.196" gradientUnits="userSpaceOnUse">
<stop stop-color="#6D0900"/>
<stop offset="1" stop-color="#D83F31"/>
</linearGradient>
<linearGradient id="paint1_linear_13_1248" x1="189.6" y1="465.98" x2="-113.561" y2="465.98" gradientUnits="userSpaceOnUse">
<stop stop-color="#6D0900"/>
<stop offset="1" stop-color="#D83F31"/>
</linearGradient>
<linearGradient id="paint2_linear_13_1248" x1="221.039" y1="456.56" x2="-83.245" y2="456.56" gradientUnits="userSpaceOnUse">
<stop stop-color="#6D0900"/>
<stop offset="1" stop-color="#D83F31"/>
</linearGradient>
<linearGradient id="paint3_linear_13_1248" x1="252.478" y1="441.6" x2="-51.8061" y2="441.6" gradientUnits="userSpaceOnUse">
<stop stop-color="#6D0900"/>
<stop offset="1" stop-color="#D83F31"/>
</linearGradient>
<linearGradient id="paint4_linear_13_1248" x1="282.794" y1="420.545" x2="-20.3672" y2="420.545" gradientUnits="userSpaceOnUse">
<stop stop-color="#6D0900"/>
<stop offset="1" stop-color="#D83F31"/>
</linearGradient>
<linearGradient id="paint5_linear_13_1248" x1="313.11" y1="397.274" x2="7.70325" y2="397.274" gradientUnits="userSpaceOnUse">
<stop stop-color="#6D0900"/>
<stop offset="1" stop-color="#D83F31"/>
</linearGradient>
<linearGradient id="paint6_linear_13_1248" x1="344.549" y1="369.016" x2="35.7737" y2="369.016" gradientUnits="userSpaceOnUse">
<stop stop-color="#6D0900"/>
<stop offset="1" stop-color="#D83F31"/>
</linearGradient>
<linearGradient id="paint7_linear_13_1248" x1="374.865" y1="340.204" x2="67.2126" y2="340.204" gradientUnits="userSpaceOnUse">
<stop stop-color="#6D0900"/>
<stop offset="1" stop-color="#D83F31"/>
</linearGradient>
<linearGradient id="paint8_linear_13_1248" x1="402.935" y1="307.513" x2="98.6515" y2="307.513" gradientUnits="userSpaceOnUse">
<stop stop-color="#6D0900"/>
<stop offset="1" stop-color="#D83F31"/>
</linearGradient>
<linearGradient id="paint9_linear_13_1248" x1="433.251" y1="277.039" x2="128.968" y2="277.039" gradientUnits="userSpaceOnUse">
<stop stop-color="#6D0900"/>
<stop offset="1" stop-color="#D83F31"/>
</linearGradient>
<linearGradient id="paint10_linear_13_1248" x1="464.69" y1="247.119" x2="160.406" y2="247.119" gradientUnits="userSpaceOnUse">
<stop stop-color="#6D0900"/>
<stop offset="1" stop-color="#D83F31"/>
</linearGradient>
<linearGradient id="paint11_linear_13_1248" x1="495.006" y1="220.523" x2="189.6" y2="220.523" gradientUnits="userSpaceOnUse">
<stop stop-color="#6D0900"/>
<stop offset="1" stop-color="#D83F31"/>
</linearGradient>
<linearGradient id="paint12_linear_13_1248" x1="526.445" y1="196.698" x2="221.039" y2="196.698" gradientUnits="userSpaceOnUse">
<stop stop-color="#6D0900"/>
<stop offset="1" stop-color="#D83F31"/>
</linearGradient>
<linearGradient id="paint13_linear_13_1248" x1="557.884" y1="178.413" x2="252.478" y2="178.413" gradientUnits="userSpaceOnUse">
<stop stop-color="#6D0900"/>
<stop offset="1" stop-color="#D83F31"/>
</linearGradient>
<linearGradient id="paint14_linear_13_1248" x1="588.2" y1="165.115" x2="282.794" y2="165.115" gradientUnits="userSpaceOnUse">
<stop stop-color="#6D0900"/>
<stop offset="1" stop-color="#D83F31"/>
</linearGradient>
<linearGradient id="paint15_linear_13_1248" x1="618.516" y1="157.358" x2="313.11" y2="157.358" gradientUnits="userSpaceOnUse">
<stop stop-color="#6D0900"/>
<stop offset="1" stop-color="#D83F31"/>
</linearGradient>
<linearGradient id="paint16_linear_13_1248" x1="648.832" y1="156.804" x2="344.549" y2="156.804" gradientUnits="userSpaceOnUse">
<stop stop-color="#6D0900"/>
<stop offset="1" stop-color="#D83F31"/>
</linearGradient>
<linearGradient id="paint17_linear_13_1248" x1="679.148" y1="161.237" x2="374.865" y2="161.237" gradientUnits="userSpaceOnUse">
<stop stop-color="#6D0900"/>
<stop offset="1" stop-color="#D83F31"/>
</linearGradient>
<linearGradient id="paint18_linear_13_1248" x1="710.587" y1="171.764" x2="402.935" y2="171.764" gradientUnits="userSpaceOnUse">
<stop stop-color="#6D0900"/>
<stop offset="1" stop-color="#D83F31"/>
</linearGradient>
<linearGradient id="paint19_linear_13_1248" x1="740.903" y1="187.832" x2="433.251" y2="187.832" gradientUnits="userSpaceOnUse">
<stop stop-color="#6D0900"/>
<stop offset="1" stop-color="#D83F31"/>
</linearGradient>
<linearGradient id="paint20_linear_13_1248" x1="770.097" y1="211.104" x2="464.69" y2="211.104" gradientUnits="userSpaceOnUse">
<stop stop-color="#6D0900"/>
<stop offset="1" stop-color="#D83F31"/>
</linearGradient>
<linearGradient id="paint21_linear_13_1248" x1="800.413" y1="234.929" x2="495.006" y2="234.929" gradientUnits="userSpaceOnUse">
<stop stop-color="#6D0900"/>
<stop offset="1" stop-color="#D83F31"/>
</linearGradient>
<linearGradient id="paint22_linear_13_1248" x1="831.852" y1="264.295" x2="526.445" y2="264.295" gradientUnits="userSpaceOnUse">
<stop stop-color="#6D0900"/>
<stop offset="1" stop-color="#D83F31"/>
</linearGradient>
<linearGradient id="paint23_linear_13_1248" x1="862.168" y1="294.77" x2="557.884" y2="294.77" gradientUnits="userSpaceOnUse">
<stop stop-color="#6D0900"/>
<stop offset="1" stop-color="#D83F31"/>
</linearGradient>
<linearGradient id="paint24_linear_13_1248" x1="892.484" y1="326.352" x2="588.2" y2="326.352" gradientUnits="userSpaceOnUse">
<stop stop-color="#6D0900"/>
<stop offset="1" stop-color="#D83F31"/>
</linearGradient>
<linearGradient id="paint25_linear_13_1248" x1="922.8" y1="356.826" x2="618.516" y2="356.826" gradientUnits="userSpaceOnUse">
<stop stop-color="#6D0900"/>
<stop offset="1" stop-color="#D83F31"/>
</linearGradient>
<linearGradient id="paint26_linear_13_1248" x1="953.116" y1="383.976" x2="648.832" y2="383.976" gradientUnits="userSpaceOnUse">
<stop stop-color="#6D0900"/>
<stop offset="1" stop-color="#D83F31"/>
</linearGradient>
<linearGradient id="paint27_linear_13_1248" x1="984.555" y1="411.126" x2="679.148" y2="411.126" gradientUnits="userSpaceOnUse">
<stop stop-color="#6D0900"/>
<stop offset="1" stop-color="#D83F31"/>
</linearGradient>
<linearGradient id="paint28_linear_13_1248" x1="1015.99" y1="432.735" x2="710.587" y2="432.735" gradientUnits="userSpaceOnUse">
<stop stop-color="#6D0900"/>
<stop offset="1" stop-color="#D83F31"/>
</linearGradient>
<linearGradient id="paint29_linear_13_1248" x1="1046.31" y1="450.465" x2="740.903" y2="450.465" gradientUnits="userSpaceOnUse">
<stop stop-color="#6D0900"/>
<stop offset="1" stop-color="#D83F31"/>
</linearGradient>
<linearGradient id="paint30_linear_13_1248" x1="1077.75" y1="462.101" x2="770.097" y2="462.101" gradientUnits="userSpaceOnUse">
<stop stop-color="#6D0900"/>
<stop offset="1" stop-color="#D83F31"/>
</linearGradient>
<linearGradient id="paint31_linear_13_1248" x1="1108.06" y1="468.196" x2="800.413" y2="468.196" gradientUnits="userSpaceOnUse">
<stop stop-color="#6D0900"/>
<stop offset="1" stop-color="#D83F31"/>
</linearGradient>
<linearGradient id="paint32_linear_13_1248" x1="1136.14" y1="467.642" x2="831.852" y2="467.642" gradientUnits="userSpaceOnUse">
<stop stop-color="#6D0900"/>
<stop offset="1" stop-color="#D83F31"/>
</linearGradient>
<linearGradient id="paint33_linear_13_1248" x1="1166.45" y1="460.439" x2="862.168" y2="460.439" gradientUnits="userSpaceOnUse">
<stop stop-color="#6D0900"/>
<stop offset="1" stop-color="#D83F31"/>
</linearGradient>
<linearGradient id="paint34_linear_13_1248" x1="1197.89" y1="447.695" x2="892.484" y2="447.695" gradientUnits="userSpaceOnUse">
<stop stop-color="#6D0900"/>
<stop offset="1" stop-color="#D83F31"/>
</linearGradient>
<linearGradient id="paint35_linear_13_1248" x1="1228.21" y1="429.965" x2="922.8" y2="429.965" gradientUnits="userSpaceOnUse">
<stop stop-color="#6D0900"/>
<stop offset="1" stop-color="#D83F31"/>
</linearGradient>
<linearGradient id="paint36_linear_13_1248" x1="1258.52" y1="407.247" x2="953.116" y2="407.247" gradientUnits="userSpaceOnUse">
<stop stop-color="#6D0900"/>
<stop offset="1" stop-color="#D83F31"/>
</linearGradient>
<linearGradient id="paint37_linear_13_1248" x1="1289.96" y1="381.206" x2="984.555" y2="381.206" gradientUnits="userSpaceOnUse">
<stop stop-color="#6D0900"/>
<stop offset="1" stop-color="#D83F31"/>
</linearGradient>
<linearGradient id="paint38_linear_13_1248" x1="1321.4" y1="351.839" x2="1015.99" y2="351.839" gradientUnits="userSpaceOnUse">
<stop stop-color="#6D0900"/>
<stop offset="1" stop-color="#D83F31"/>
</linearGradient>
<linearGradient id="paint39_linear_13_1248" x1="1350.59" y1="320.811" x2="1046.31" y2="320.811" gradientUnits="userSpaceOnUse">
<stop stop-color="#6D0900"/>
<stop offset="1" stop-color="#D83F31"/>
</linearGradient>
<linearGradient id="paint40_linear_13_1248" x1="1382.03" y1="290.891" x2="1077.75" y2="290.891" gradientUnits="userSpaceOnUse">
<stop stop-color="#6D0900"/>
<stop offset="1" stop-color="#D83F31"/>
</linearGradient>
<linearGradient id="paint41_linear_13_1248" x1="1412.35" y1="259.308" x2="1108.06" y2="259.308" gradientUnits="userSpaceOnUse">
<stop stop-color="#6D0900"/>
<stop offset="1" stop-color="#D83F31"/>
</linearGradient>
<linearGradient id="paint42_linear_13_1248" x1="1443.79" y1="232.159" x2="1136.14" y2="232.159" gradientUnits="userSpaceOnUse">
<stop stop-color="#6D0900"/>
<stop offset="1" stop-color="#D83F31"/>
</linearGradient>
<linearGradient id="paint43_linear_13_1248" x1="1475.23" y1="206.671" x2="1166.45" y2="206.671" gradientUnits="userSpaceOnUse">
<stop stop-color="#6D0900"/>
<stop offset="1" stop-color="#D83F31"/>
</linearGradient>
<linearGradient id="paint44_linear_13_1248" x1="1503.3" y1="185.062" x2="1197.89" y2="185.062" gradientUnits="userSpaceOnUse">
<stop stop-color="#6D0900"/>
<stop offset="1" stop-color="#D83F31"/>
</linearGradient>
<linearGradient id="paint45_linear_13_1248" x1="1531.37" y1="169.548" x2="1228.21" y2="169.548" gradientUnits="userSpaceOnUse">
<stop stop-color="#6D0900"/>
<stop offset="1" stop-color="#D83F31"/>
</linearGradient>
<linearGradient id="paint46_linear_13_1248" x1="1562.81" y1="160.129" x2="1258.52" y2="160.129" gradientUnits="userSpaceOnUse">
<stop stop-color="#6D0900"/>
<stop offset="1" stop-color="#D83F31"/>
</linearGradient>
<linearGradient id="paint47_linear_13_1248" x1="1594.24" y1="156.804" x2="1289.96" y2="156.804" gradientUnits="userSpaceOnUse">
<stop stop-color="#6D0900"/>
<stop offset="1" stop-color="#D83F31"/>
</linearGradient>
<linearGradient id="paint48_linear_13_1248" x1="1624.56" y1="157.912" x2="1321.4" y2="157.912" gradientUnits="userSpaceOnUse">
<stop stop-color="#6D0900"/>
<stop offset="1" stop-color="#D83F31"/>
</linearGradient>
<linearGradient id="paint49_linear_13_1248" x1="1656" y1="166.777" x2="1350.59" y2="166.777" gradientUnits="userSpaceOnUse">
<stop stop-color="#6D0900"/>
<stop offset="1" stop-color="#D83F31"/>
</linearGradient>
</defs>
</svg>
